<svg xmlns="http://www.w3.org/2000/svg" xmlns:xlink="http://www.w3.org/1999/xlink" width="1920" zoomAndPan="magnify" viewBox="0 0 1440 809.999993" height="1080" preserveAspectRatio="xMidYMid meet" version="1.0"><defs><g/></defs><g fill="#f9f9f9" fill-opacity="1"><g transform="translate(0.00000622222, 365.250002)"><g><path d="M 15.40625 -269.484375 L 65.4375 -269.484375 C 84.6875 -269.484375 99.441406 -264.09375 109.703125 -253.3125 C 119.972656 -242.53125 125.109375 -225.460938 125.109375 -202.109375 L 125.109375 -67.375 C 125.109375 -44.019531 119.972656 -26.953125 109.703125 -16.171875 C 99.441406 -5.390625 84.6875 0 65.4375 0 L 15.40625 0 Z M 65.4375 -38.5 C 70.320312 -38.5 74.429688 -40.550781 77.765625 -44.65625 C 81.097656 -48.757812 82.765625 -55.6875 82.765625 -65.4375 L 82.765625 -204.03125 C 82.765625 -213.78125 81.097656 -220.707031 77.765625 -224.8125 C 74.429688 -228.925781 70.320312 -230.984375 65.4375 -230.984375 L 57.75 -230.984375 L 57.75 -38.5 Z M 65.4375 -38.5 "/></g></g></g><g fill="#f9f9f9" fill-opacity="1"><g transform="translate(124.346535, 365.250002)"><g><path d="M 15.40625 -269.484375 L 98.171875 -269.484375 L 98.171875 -229.0625 L 57.75 -229.0625 L 57.75 -155.90625 L 94.3125 -155.90625 L 94.3125 -115.484375 L 57.75 -115.484375 L 57.75 -40.421875 L 100.09375 -40.421875 L 100.09375 0 L 15.40625 0 Z M 15.40625 -269.484375 "/></g></g></g><g fill="#f9f9f9" fill-opacity="1"><g transform="translate(219.820011, 365.250002)"><g><path d="M 3.84375 -269.484375 L 46.203125 -269.484375 L 59.671875 -115.484375 C 60.179688 -108.816406 60.691406 -101.695312 61.203125 -94.125 C 61.722656 -86.550781 62.238281 -79.6875 62.75 -73.53125 C 63.257812 -66.082031 63.644531 -58.894531 63.90625 -51.96875 L 65.4375 -51.96875 C 65.695312 -58.894531 66.082031 -66.082031 66.59375 -73.53125 C 67.113281 -79.6875 67.628906 -86.550781 68.140625 -94.125 C 68.648438 -101.695312 69.289062 -108.816406 70.0625 -115.484375 L 84.6875 -269.484375 L 127.046875 -269.484375 L 92.390625 0 L 34.640625 0 Z M 3.84375 -269.484375 "/></g></g></g><g fill="#f9f9f9" fill-opacity="1"><g transform="translate(338.391965, 365.250002)"><g><path d="M 15.40625 -269.484375 L 98.171875 -269.484375 L 98.171875 -229.0625 L 57.75 -229.0625 L 57.75 -155.90625 L 94.3125 -155.90625 L 94.3125 -115.484375 L 57.75 -115.484375 L 57.75 -40.421875 L 100.09375 -40.421875 L 100.09375 0 L 15.40625 0 Z M 15.40625 -269.484375 "/></g></g></g><g fill="#f9f9f9" fill-opacity="1"><g transform="translate(433.865463, 365.250002)"><g><path d="M 15.40625 -269.484375 L 57.75 -269.484375 L 57.75 -40.421875 L 100.09375 -40.421875 L 100.09375 0 L 15.40625 0 Z M 15.40625 -269.484375 "/></g></g></g><g fill="#f9f9f9" fill-opacity="1"><g transform="translate(521.639445, 365.250002)"><g><path d="M 69.296875 3.84375 C 51.835938 3.84375 38.164062 -1.476562 28.28125 -12.125 C 18.40625 -22.78125 13.46875 -39.269531 13.46875 -61.59375 L 13.46875 -207.890625 C 13.46875 -230.210938 18.40625 -246.695312 28.28125 -257.34375 C 38.164062 -268 51.835938 -273.328125 69.296875 -273.328125 C 86.742188 -273.328125 100.40625 -268 110.28125 -257.34375 C 120.164062 -246.695312 125.109375 -230.210938 125.109375 -207.890625 L 125.109375 -61.59375 C 125.109375 -39.269531 120.164062 -22.78125 110.28125 -12.125 C 100.40625 -1.476562 86.742188 3.84375 69.296875 3.84375 Z M 69.296875 -34.640625 C 73.140625 -34.640625 76.34375 -36.304688 78.90625 -39.640625 C 81.476562 -42.984375 82.765625 -49.019531 82.765625 -57.75 L 82.765625 -211.734375 C 82.765625 -220.460938 81.476562 -226.492188 78.90625 -229.828125 C 76.34375 -233.160156 73.140625 -234.828125 69.296875 -234.828125 C 65.441406 -234.828125 62.234375 -233.160156 59.671875 -229.828125 C 57.109375 -226.492188 55.828125 -220.460938 55.828125 -211.734375 L 55.828125 -57.75 C 55.828125 -49.019531 57.109375 -42.984375 59.671875 -39.640625 C 62.234375 -36.304688 65.441406 -34.640625 69.296875 -34.640625 Z M 69.296875 -34.640625 "/></g></g></g><g fill="#f9f9f9" fill-opacity="1"><g transform="translate(647.910894, 365.250002)"><g><path d="M 15.40625 -269.484375 L 65.4375 -269.484375 C 84.6875 -269.484375 99.441406 -264.09375 109.703125 -253.3125 C 119.972656 -242.53125 125.109375 -225.460938 125.109375 -202.109375 L 125.109375 -165.53125 C 125.109375 -142.175781 119.972656 -125.109375 109.703125 -114.328125 C 99.441406 -103.554688 84.6875 -98.171875 65.4375 -98.171875 L 57.75 -98.171875 L 57.75 0 L 15.40625 0 Z M 65.4375 -136.65625 C 70.320312 -136.65625 74.429688 -138.707031 77.765625 -142.8125 C 81.097656 -146.925781 82.765625 -153.859375 82.765625 -163.609375 L 82.765625 -204.03125 C 82.765625 -213.78125 81.097656 -220.707031 77.765625 -224.8125 C 74.429688 -228.925781 70.320312 -230.984375 65.4375 -230.984375 L 57.75 -230.984375 L 57.75 -136.65625 Z M 65.4375 -136.65625 "/></g></g></g><g fill="#f9f9f9" fill-opacity="1"><g transform="translate(768.407653, 365.250002)"><g><path d="M 15.40625 -269.484375 L 98.171875 -269.484375 L 98.171875 -229.0625 L 57.75 -229.0625 L 57.75 -155.90625 L 94.3125 -155.90625 L 94.3125 -115.484375 L 57.75 -115.484375 L 57.75 -40.421875 L 100.09375 -40.421875 L 100.09375 0 L 15.40625 0 Z M 15.40625 -269.484375 "/></g></g></g><g fill="#f9f9f9" fill-opacity="1"><g transform="translate(863.881129, 365.250002)"><g><path d="M 15.40625 -269.484375 L 65.4375 -269.484375 C 84.6875 -269.484375 99.441406 -264.09375 109.703125 -253.3125 C 119.972656 -242.53125 125.109375 -225.460938 125.109375 -202.109375 L 125.109375 -175.15625 C 125.109375 -163.863281 124.082031 -154.816406 122.03125 -148.015625 C 119.976562 -141.210938 117.796875 -135.757812 115.484375 -131.65625 C 112.660156 -127.039062 109.453125 -123.578125 105.859375 -121.265625 L 130.890625 0 L 86.625 0 L 65.4375 -107.796875 L 57.75 -107.796875 L 57.75 0 L 15.40625 0 Z M 65.4375 -146.28125 C 70.320312 -146.28125 74.429688 -148.332031 77.765625 -152.4375 C 81.097656 -156.550781 82.765625 -163.484375 82.765625 -173.234375 L 82.765625 -204.03125 C 82.765625 -213.78125 81.097656 -220.707031 77.765625 -224.8125 C 74.429688 -228.925781 70.320312 -230.984375 65.4375 -230.984375 L 57.75 -230.984375 L 57.75 -146.28125 Z M 65.4375 -146.28125 "/></g></g></g><g fill="#f9f9f9" fill-opacity="1"><g transform="translate(988.22768, 365.250002)"><g/></g></g><g fill="#f9f9f9" fill-opacity="1"><g transform="translate(1029.804796, 365.250002)"><g><path d="M 15.40625 -269.484375 L 98.171875 -269.484375 L 98.171875 -229.0625 L 57.75 -229.0625 L 57.75 -152.0625 L 94.3125 -152.0625 L 94.3125 -111.640625 L 57.75 -111.640625 L 57.75 0 L 15.40625 0 Z M 15.40625 -269.484375 "/></g></g></g><g fill="#f9f9f9" fill-opacity="1"><g transform="translate(1119.503675, 365.250002)"><g><path d="M 68.53125 3.84375 C 51.582031 3.84375 38.164062 -1.476562 28.28125 -12.125 C 18.40625 -22.78125 13.46875 -39.269531 13.46875 -61.59375 L 13.46875 -269.484375 L 55.828125 -269.484375 L 55.828125 -57.75 C 55.828125 -49.019531 57.046875 -42.984375 59.484375 -39.640625 C 61.921875 -36.304688 64.9375 -34.640625 68.53125 -34.640625 C 72.113281 -34.640625 75.125 -36.304688 77.5625 -39.640625 C 80.007812 -42.984375 81.234375 -49.019531 81.234375 -57.75 L 81.234375 -269.484375 L 123.578125 -269.484375 L 123.578125 -61.59375 C 123.578125 -39.269531 118.632812 -22.78125 108.75 -12.125 C 98.875 -1.476562 85.46875 3.84375 68.53125 3.84375 Z M 68.53125 3.84375 "/></g></g></g><g fill="#f9f9f9" fill-opacity="1"><g transform="translate(1244.235205, 365.250002)"><g><path d="M 15.40625 -269.484375 L 57.75 -269.484375 L 57.75 -40.421875 L 100.09375 -40.421875 L 100.09375 0 L 15.40625 0 Z M 15.40625 -269.484375 "/></g></g></g><g fill="#f9f9f9" fill-opacity="1"><g transform="translate(1332.009187, 365.250002)"><g><path d="M 15.40625 -269.484375 L 57.75 -269.484375 L 57.75 -40.421875 L 100.09375 -40.421875 L 100.09375 0 L 15.40625 0 Z M 15.40625 -269.484375 "/></g></g></g><g fill="#f9f9f9" fill-opacity="1"><g transform="translate(0.00000622222, 672.749986)"><g><path d="M 61.59375 3.84375 C 45.164062 3.84375 32.078125 -1.414062 22.328125 -11.9375 C 12.578125 -22.457031 7.703125 -38.367188 7.703125 -59.671875 L 7.703125 -86.625 L 50.046875 -86.625 L 50.046875 -55.828125 C 50.046875 -47.097656 51.265625 -41.382812 53.703125 -38.6875 C 56.140625 -35.988281 58.769531 -34.640625 61.59375 -34.640625 C 64.414062 -34.640625 67.046875 -35.988281 69.484375 -38.6875 C 71.921875 -41.382812 73.140625 -47.097656 73.140625 -55.828125 C 73.140625 -61.472656 72.882812 -66.28125 72.375 -70.25 C 71.863281 -74.226562 70.578125 -78.460938 68.515625 -82.953125 C 66.460938 -87.453125 63.382812 -92.78125 59.28125 -98.9375 C 55.175781 -105.09375 49.53125 -113.175781 42.34375 -123.1875 C 35.15625 -133.195312 29.316406 -141.726562 24.828125 -148.78125 C 20.335938 -155.84375 16.804688 -162.453125 14.234375 -168.609375 C 11.671875 -174.773438 9.941406 -181 9.046875 -187.28125 C 8.148438 -193.570312 7.703125 -201.082031 7.703125 -209.8125 C 7.703125 -231.113281 12.578125 -247.023438 22.328125 -257.546875 C 32.078125 -268.066406 45.164062 -273.328125 61.59375 -273.328125 C 78.019531 -273.328125 91.109375 -268.066406 100.859375 -257.546875 C 110.609375 -247.023438 115.484375 -231.113281 115.484375 -209.8125 L 115.484375 -186.703125 L 73.140625 -186.703125 L 73.140625 -213.65625 C 73.140625 -222.382812 71.921875 -228.09375 69.484375 -230.78125 C 67.046875 -233.476562 64.414062 -234.828125 61.59375 -234.828125 C 58.769531 -234.828125 56.140625 -233.476562 53.703125 -230.78125 C 51.265625 -228.09375 50.046875 -222.382812 50.046875 -213.65625 C 50.046875 -207.75 50.300781 -202.867188 50.8125 -199.015625 C 51.320312 -195.171875 52.601562 -191.003906 54.65625 -186.515625 C 56.71875 -182.023438 59.800781 -176.695312 63.90625 -170.53125 C 68.007812 -164.375 73.65625 -156.289062 80.84375 -146.28125 C 88.03125 -136.28125 93.867188 -127.75 98.359375 -120.6875 C 102.847656 -113.625 106.375 -107.015625 108.9375 -100.859375 C 111.507812 -94.703125 113.242188 -88.476562 114.140625 -82.1875 C 115.035156 -75.90625 115.484375 -68.398438 115.484375 -59.671875 C 115.484375 -38.367188 110.609375 -22.457031 100.859375 -11.9375 C 91.109375 -1.414062 78.019531 3.84375 61.59375 3.84375 Z M 61.59375 3.84375 "/></g></g></g><g fill="#f9f9f9" fill-opacity="1"><g transform="translate(110.872468, 672.749986)"><g><path d="M 32.71875 -229.0625 L 1.921875 -229.0625 L 1.921875 -269.484375 L 105.859375 -269.484375 L 105.859375 -229.0625 L 75.0625 -229.0625 L 75.0625 0 L 32.71875 0 Z M 32.71875 -229.0625 "/></g></g></g><g fill="#f9f9f9" fill-opacity="1"><g transform="translate(206.345943, 672.749986)"><g><path d="M 38.5 -269.484375 L 96.25 -269.484375 L 128.96875 0 L 86.625 0 L 81.234375 -53.890625 L 49.28125 -53.890625 L 44.265625 0 L 1.921875 0 Z M 77.375 -94.3125 L 68.53125 -182.859375 C 67.757812 -191.585938 67.242188 -199.351562 66.984375 -206.15625 C 66.722656 -212.957031 66.46875 -219.304688 66.21875 -225.203125 L 64.671875 -225.203125 C 64.421875 -219.304688 64.035156 -212.957031 63.515625 -206.15625 C 63.003906 -199.351562 62.363281 -191.585938 61.59375 -182.859375 L 53.125 -94.3125 Z M 77.375 -94.3125 "/></g></g></g><g fill="#f9f9f9" fill-opacity="1"><g transform="translate(324.917898, 672.749986)"><g><path d="M 67.375 3.84375 C 50.945312 3.84375 37.851562 -1.414062 28.09375 -11.9375 C 18.34375 -22.457031 13.46875 -38.367188 13.46875 -59.671875 L 13.46875 -209.8125 C 13.46875 -231.113281 18.34375 -247.023438 28.09375 -257.546875 C 37.851562 -268.066406 50.945312 -273.328125 67.375 -273.328125 C 83.789062 -273.328125 96.875 -268.066406 106.625 -257.546875 C 116.382812 -247.023438 121.265625 -231.113281 121.265625 -209.8125 L 121.265625 -179.015625 L 78.921875 -179.015625 L 78.921875 -213.65625 C 78.921875 -222.382812 77.703125 -228.09375 75.265625 -230.78125 C 72.828125 -233.476562 70.195312 -234.828125 67.375 -234.828125 C 64.550781 -234.828125 61.921875 -233.476562 59.484375 -230.78125 C 57.046875 -228.09375 55.828125 -222.382812 55.828125 -213.65625 L 55.828125 -55.828125 C 55.828125 -47.097656 57.046875 -41.382812 59.484375 -38.6875 C 61.921875 -35.988281 64.550781 -34.640625 67.375 -34.640625 C 70.195312 -34.640625 72.828125 -35.988281 75.265625 -38.6875 C 77.703125 -41.382812 78.921875 -47.097656 78.921875 -55.828125 L 78.921875 -96.25 L 121.265625 -96.25 L 121.265625 -59.671875 C 121.265625 -38.367188 116.382812 -22.457031 106.625 -11.9375 C 96.875 -1.414062 83.789062 3.84375 67.375 3.84375 Z M 67.375 3.84375 "/></g></g></g><g fill="#f9f9f9" fill-opacity="1"><g transform="translate(445.414657, 672.749986)"><g><path d="M 15.40625 -269.484375 L 57.75 -269.484375 L 57.75 -150.140625 L 65.4375 -150.140625 L 94.3125 -269.484375 L 136.65625 -269.484375 L 103.9375 -138.59375 L 140.515625 0 L 96.25 0 L 65.4375 -121.265625 L 57.75 -121.265625 L 57.75 0 L 15.40625 0 Z M 15.40625 -269.484375 "/></g></g></g><g fill="#f9f9f9" fill-opacity="1"><g transform="translate(571.686106, 672.749986)"><g/></g></g><g fill="#f9f9f9" fill-opacity="1"><g transform="translate(613.263221, 672.749986)"><g><path d="M 1.921875 61.59375 C -0.128906 61.59375 -1.859375 61.59375 -3.265625 61.59375 C -4.679688 61.59375 -5.898438 61.460938 -6.921875 61.203125 C -7.953125 60.953125 -8.851562 60.695312 -9.625 60.4375 L -9.625 21.171875 C -8.851562 21.679688 -7.953125 22.066406 -6.921875 22.328125 C -4.867188 22.835938 -2.5625 23.09375 0 23.09375 C 5.90625 23.09375 9.945312 21.488281 12.125 18.28125 C 14.3125 15.070312 15.40625 9.617188 15.40625 1.921875 L 15.40625 -269.484375 L 57.75 -269.484375 L 57.75 0 C 57.75 21.300781 53.0625 36.890625 43.6875 46.765625 C 34.320312 56.648438 20.398438 61.59375 1.921875 61.59375 Z M 1.921875 61.59375 "/></g></g></g><g fill="#f9f9f9" fill-opacity="1"><g transform="translate(674.088978, 672.749986)"><g><path d="M 68.53125 3.84375 C 51.582031 3.84375 38.164062 -1.476562 28.28125 -12.125 C 18.40625 -22.78125 13.46875 -39.269531 13.46875 -61.59375 L 13.46875 -269.484375 L 55.828125 -269.484375 L 55.828125 -57.75 C 55.828125 -49.019531 57.046875 -42.984375 59.484375 -39.640625 C 61.921875 -36.304688 64.9375 -34.640625 68.53125 -34.640625 C 72.113281 -34.640625 75.125 -36.304688 77.5625 -39.640625 C 80.007812 -42.984375 81.234375 -49.019531 81.234375 -57.75 L 81.234375 -269.484375 L 123.578125 -269.484375 L 123.578125 -61.59375 C 123.578125 -39.269531 118.632812 -22.78125 108.75 -12.125 C 98.875 -1.476562 85.46875 3.84375 68.53125 3.84375 Z M 68.53125 3.84375 "/></g></g></g><g fill="#f9f9f9" fill-opacity="1"><g transform="translate(798.820555, 672.749986)"><g><path d="M 15.40625 -269.484375 L 57.75 -269.484375 L 97.390625 -90.46875 L 98.171875 -90.46875 C 97.140625 -99.195312 96.113281 -107.796875 95.09375 -116.265625 C 94.320312 -123.453125 93.675781 -131.019531 93.15625 -138.96875 C 92.644531 -146.925781 92.390625 -153.859375 92.390625 -159.765625 L 92.390625 -269.484375 L 132.8125 -269.484375 L 132.8125 0 L 90.46875 0 L 50.8125 -179.015625 L 50.046875 -179.015625 C 50.816406 -170.023438 51.710938 -161.296875 52.734375 -152.828125 C 53.503906 -145.390625 54.210938 -137.820312 54.859375 -130.125 C 55.503906 -122.425781 55.828125 -115.625 55.828125 -109.71875 L 55.828125 0 L 15.40625 0 Z M 15.40625 -269.484375 "/></g></g></g><g fill="#f9f9f9" fill-opacity="1"><g transform="translate(934.716303, 672.749986)"><g><path d="M 15.40625 -269.484375 L 57.75 -269.484375 L 57.75 0 L 15.40625 0 Z M 15.40625 -269.484375 "/></g></g></g><g fill="#f9f9f9" fill-opacity="1"><g transform="translate(995.542105, 672.749986)"><g><path d="M 69.296875 3.84375 C 51.835938 3.84375 38.164062 -1.476562 28.28125 -12.125 C 18.40625 -22.78125 13.46875 -39.269531 13.46875 -61.59375 L 13.46875 -207.890625 C 13.46875 -230.210938 18.40625 -246.695312 28.28125 -257.34375 C 38.164062 -268 51.835938 -273.328125 69.296875 -273.328125 C 86.742188 -273.328125 100.40625 -268 110.28125 -257.34375 C 120.164062 -246.695312 125.109375 -230.210938 125.109375 -207.890625 L 125.109375 -61.59375 C 125.109375 -39.269531 120.164062 -22.78125 110.28125 -12.125 C 100.40625 -1.476562 86.742188 3.84375 69.296875 3.84375 Z M 69.296875 -34.640625 C 73.140625 -34.640625 76.34375 -36.304688 78.90625 -39.640625 C 81.476562 -42.984375 82.765625 -49.019531 82.765625 -57.75 L 82.765625 -211.734375 C 82.765625 -220.460938 81.476562 -226.492188 78.90625 -229.828125 C 76.34375 -233.160156 73.140625 -234.828125 69.296875 -234.828125 C 65.441406 -234.828125 62.234375 -233.160156 59.671875 -229.828125 C 57.109375 -226.492188 55.828125 -220.460938 55.828125 -211.734375 L 55.828125 -57.75 C 55.828125 -49.019531 57.109375 -42.984375 59.671875 -39.640625 C 62.234375 -36.304688 65.441406 -34.640625 69.296875 -34.640625 Z M 69.296875 -34.640625 "/></g></g></g><g fill="#f9f9f9" fill-opacity="1"><g transform="translate(1121.813554, 672.749986)"><g><path d="M 15.40625 -269.484375 L 65.4375 -269.484375 C 84.6875 -269.484375 99.441406 -264.09375 109.703125 -253.3125 C 119.972656 -242.53125 125.109375 -225.460938 125.109375 -202.109375 L 125.109375 -175.15625 C 125.109375 -163.863281 124.082031 -154.816406 122.03125 -148.015625 C 119.976562 -141.210938 117.796875 -135.757812 115.484375 -131.65625 C 112.660156 -127.039062 109.453125 -123.578125 105.859375 -121.265625 L 130.890625 0 L 86.625 0 L 65.4375 -107.796875 L 57.75 -107.796875 L 57.75 0 L 15.40625 0 Z M 65.4375 -146.28125 C 70.320312 -146.28125 74.429688 -148.332031 77.765625 -152.4375 C 81.097656 -156.550781 82.765625 -163.484375 82.765625 -173.234375 L 82.765625 -204.03125 C 82.765625 -213.78125 81.097656 -220.707031 77.765625 -224.8125 C 74.429688 -228.925781 70.320312 -230.984375 65.4375 -230.984375 L 57.75 -230.984375 L 57.75 -146.28125 Z M 65.4375 -146.28125 "/></g></g></g></svg>